<svg width="14" height="8" viewBox="0 0 14 8" fill="none" xmlns="http://www.w3.org/2000/svg">
<path d="M13.4196 0.779979C13.3211 0.683793 13.1889 0.629944 13.0512 0.629944C12.9136 0.629944 12.7814 0.683793 12.6829 0.779979L7.17019 6.15376L1.65857 0.779979C1.56009 0.683793 1.4279 0.629944 1.29024 0.629944C1.15259 0.629944 1.02039 0.683793 0.921919 0.779979C0.8739 0.826732 0.835735 0.882631 0.809675 0.944376C0.783615 1.00612 0.770189 1.07246 0.770189 1.13948C0.770189 1.2065 0.783615 1.27284 0.809675 1.33459C0.835735 1.39633 0.8739 1.45223 0.921919 1.49898L6.78533 7.21352C6.88829 7.31389 7.0264 7.37006 7.17019 7.37006C7.31398 7.37006 7.45209 7.31389 7.55506 7.21352L13.4185 1.49898C13.4665 1.45223 13.5046 1.39633 13.5307 1.33459C13.5568 1.27284 13.5702 1.2065 13.5702 1.13948C13.5702 1.07246 13.5568 1.00612 13.5307 0.944376C13.5046 0.882631 13.4665 0.826732 13.4185 0.779979H13.4196Z" fill="#2A394E"/>
</svg>
