<svg width="195" height="55" viewBox="0 0 195 55" fill="none" xmlns="http://www.w3.org/2000/svg">
<g clip-path="url(#clip0_20_1053)">
<path d="M32.2272 0.939453V54.9394L25.0841 43.1955V25.8501H15.0754L10.3767 18.2072L10.2995 17.9088H24.9595C24.9687 17.9088 25.0841 17.7926 25.0841 17.7834V11.2213H5.93887C4.07916 8.16102 2.37146 5.00958 0.564912 1.91749C0.438661 1.70098 0.247624 1.23203 0.000106812 1.19023V0.939453H32.2272Z" fill="#182BFF"/>
<path d="M67.1953 0.939453L61.2566 11.2213H42.1113V18.0759H56.7298C56.7381 18.2423 56.6202 18.3777 56.5463 18.5181C55.1907 21.0736 53.5179 23.4827 52.12 26.0172H42.1113V43.3627L34.9691 54.9394V0.939453H67.1953Z" fill="#182BFF"/>
<path d="M194.999 35.9718C194.689 35.9126 194.838 36.1278 194.793 36.3026C193.363 41.8503 186.781 44.1364 181.654 42.8358C177.617 41.8118 173.585 38.8079 173.805 34.1943H180.183C180.01 39.7568 189.795 39.5199 188.988 33.8744C188.933 33.4902 188.694 32.9451 188.416 32.6726C186.531 30.8309 181.193 29.9116 178.579 28.7483C175.755 27.4912 173.802 25.4234 173.605 22.2003C173.252 16.4363 177.046 13.3711 182.393 12.7658C187.919 12.1397 194.32 15.2888 194.607 21.4547H188.033C187.853 18.6206 185.074 17.6529 182.6 17.9116C179.889 18.196 178.795 21.5999 180.922 23.4267C182.578 24.8497 186.563 25.5953 188.745 26.4159C191.531 27.4636 193.976 28.9043 194.794 31.9853C194.84 32.1591 194.689 32.3754 195 32.3161V35.9698L194.999 35.9718Z" fill="#979798"/>
<path d="M147.215 12.9629L159.533 12.959C163.763 13.3797 167.494 15.2934 168.653 19.6788C170.035 24.9116 167.328 29.0343 162.369 30.5393C162.262 30.5718 162.192 30.4711 162.231 30.6834L169.095 42.7851H162.472C160.167 38.9991 158.007 35.1084 155.849 31.2315H153.102V42.7851H147.215V12.9629ZM153.102 26.7878H158.744C159.668 26.7878 161.263 25.8951 161.888 25.2118C163.31 23.6555 163.066 20.2862 161.376 19.0034C160.091 18.0278 158.045 18.0426 156.491 17.9952C155.364 17.9606 154.228 18.0288 153.102 17.9991V26.7878Z" fill="#979798"/>
<path d="M141.622 13.1611V17.8023H130.584C130.573 17.8023 130.436 17.9396 130.436 17.9505V25.1591C130.436 25.17 130.573 25.3073 130.584 25.3073H140.445V29.9485H130.436V37.8484H141.622V42.9833H124.549V13.1611H141.622Z" fill="#979798"/>
<path d="M101.982 13.1611L108.164 26.6897L114.59 13.1611H121.115L111.205 32.4665V42.9833H105.024V32.4665L95.1136 13.1611H101.982Z" fill="#979798"/>
<path d="M93.4456 13.1611V17.753C93.4456 17.7638 93.3092 17.9011 93.2984 17.9011H81.1807V25.5047H90.6982V30.0966C90.6982 30.1074 90.5619 30.2447 90.5511 30.2447H81.1807V42.9833H75.1954V13.1611H93.4456Z" fill="#979798"/>
</g>
<defs>
<clipPath id="clip0_20_1053">
<rect width="195" height="54" fill="white" transform="translate(0.000106812 0.939453)"/>
</clipPath>
</defs>
</svg>
