<svg width="260" height="52" viewBox="0 0 260 52" fill="none" xmlns="http://www.w3.org/2000/svg">
<g clip-path="url(#clip0_1034_3004)">
<path d="M41.3164 42.1681L47.4308 19.4475H55.5562L49.4436 42.1681H41.3164ZM75.2792 26.7725C75.3607 25.6733 75.0983 24.8485 74.49 24.291C73.8782 23.7387 72.9295 23.4609 71.6368 23.4609C69.5726 23.4609 67.8206 24.0852 66.3682 25.3321C64.9212 26.5773 63.8891 28.35 63.2702 30.6539C62.6726 32.8734 62.763 34.5758 63.5397 35.7647C64.3129 36.9571 65.7156 37.5515 67.7514 37.5515C69.2428 37.5515 70.5231 37.2103 71.5977 36.5262C72.6671 35.8473 73.4863 34.8449 74.0574 33.5188H82.4718C81.367 36.4945 79.4713 38.6929 76.79 40.1121C74.1035 41.5279 70.4681 42.2384 65.8912 42.2384C61.472 42.2384 58.2996 41.2483 56.3631 39.2662C54.4302 37.2842 53.9443 34.5125 54.9001 30.9582C55.9481 27.0679 58.0265 24.0641 61.1422 21.9572C64.2562 19.8468 68.177 18.7898 72.894 18.7898C76.9869 18.7898 79.9377 19.4581 81.7447 20.8C83.5464 22.1401 84.1884 24.1327 83.6599 26.7725H75.2792ZM82.376 42.1681L88.4887 19.4475H96.6159L90.5014 42.1681H82.376ZM116.339 26.7725C116.42 25.6733 116.158 24.8485 115.548 24.291C114.938 23.7387 113.989 23.4609 112.696 23.4609C110.632 23.4609 108.88 24.0852 107.428 25.3321C105.981 26.5773 104.949 28.35 104.328 30.6539C103.732 32.8734 103.823 34.5758 104.599 35.7647C105.373 36.9571 106.775 37.5515 108.811 37.5515C110.302 37.5515 111.583 37.2103 112.657 36.5262C113.725 35.8473 114.546 34.8449 115.117 33.5188H123.53C122.427 36.4945 120.531 38.6929 117.85 40.1121C115.163 41.5279 111.528 42.2384 106.951 42.2384C102.532 42.2384 99.3592 41.2483 97.4227 39.2662C95.4898 37.2842 95.0039 34.5125 95.9597 30.9582C97.0078 27.0679 99.0861 24.0641 102.2 21.9572C105.316 19.8468 109.237 18.7898 113.952 18.7898C118.047 18.7898 120.997 19.4581 122.804 20.8C124.606 22.1401 125.248 24.1327 124.72 26.7725H116.339ZM123.434 42.1681L129.548 19.4475H137.675L131.561 42.1681H123.434Z" fill="white"/>
<path d="M157.973 24.4313L153.812 24.4348L150.377 37.2029L154.538 37.1993C157.176 37.1976 159.255 36.8054 160.767 36.0228C162.691 35.0256 163.979 33.3144 164.631 30.8909C165.791 26.5786 163.571 24.426 157.973 24.4313ZM142.619 42.1694L148.728 19.4507L160.292 19.4401C164.287 19.4348 167.139 19.9923 168.845 21.1091C171.764 23.0261 172.592 26.3359 171.326 31.0387C170.115 35.5462 167.604 38.7259 163.794 40.5778C162.369 41.2672 160.755 41.7262 158.955 41.9531C157.864 42.0885 156.274 42.1553 154.183 42.1571L142.619 42.1694ZM175.513 23.8738L176.71 19.4225L183.29 19.4172L182.093 23.8685L175.513 23.8738ZM170.847 42.1413L175.106 26.3078L181.207 26.3025L176.947 42.136L170.847 42.1413ZM195.911 31.3236C195.298 31.2216 194.673 31.1706 194.044 31.1706C190.793 31.1741 188.681 32.9873 187.706 36.6119L186.223 42.1272L180.123 42.1325L183.379 30.0274C183.771 28.5677 184.044 27.3261 184.195 26.299L190.171 26.2937C190.061 27.0113 189.887 27.8132 189.65 28.6961L189.454 29.4189C191.27 27.21 193.677 26.1055 196.679 26.102H197.316L195.911 31.3236ZM202.57 32.3331L210.376 32.3243C210.632 31.2673 210.458 30.4618 209.858 29.9078C209.31 29.396 208.488 29.1393 207.386 29.141C204.923 29.1428 203.318 30.2068 202.57 32.3331ZM214.802 37.0481C213.527 40.6728 209.873 42.4877 203.84 42.4948C200.869 42.4965 198.674 41.9091 197.254 40.7308C195.597 39.345 195.147 37.2521 195.901 34.4488C196.693 31.5012 198.319 29.287 200.775 27.8079C202.951 26.4907 205.579 25.8312 208.663 25.8277C214.987 25.8224 217.326 28.879 215.68 34.9992L215.535 35.5374L201.705 35.5515C201.44 36.7227 201.614 37.6355 202.224 38.2915C202.813 38.907 203.708 39.2148 204.909 39.213C206.957 39.2113 208.264 38.492 208.826 37.0534L214.802 37.0481ZM231.44 31.8266C231.633 30.1013 230.697 29.2413 228.627 29.243C227.241 29.2448 226.065 29.7689 225.1 30.8171C224.283 31.6999 223.678 32.8712 223.286 34.3292C222.477 37.3383 223.385 38.842 226.015 38.8384C228.354 38.8367 229.807 37.8606 230.372 35.9085L236.659 35.9014C235.261 40.256 231.369 42.4367 224.983 42.442C221.983 42.4455 219.764 41.8687 218.328 40.7097C216.645 39.3467 216.184 37.2521 216.943 34.4277C217.732 31.4924 219.358 29.2782 221.818 27.7868C223.992 26.4713 226.622 25.8101 229.705 25.8083C235.584 25.8013 238.194 27.8062 237.54 31.8213L231.44 31.8266ZM250.508 20.6747L249.013 26.2357L254.027 26.2304L253.016 29.9887L248.003 29.994L246.341 36.1705C246.112 37.0235 246.162 37.6074 246.49 37.9257C246.777 38.2018 247.366 38.3407 248.256 38.339C248.847 38.339 249.698 38.2862 250.812 38.1825L249.778 42.034C248.368 42.3119 247.015 42.4526 245.722 42.4526C241.044 42.4578 239.156 40.7871 240.056 37.4385L242.057 29.9993L238.393 30.0028L239.404 26.2445L243.067 26.241L243.975 22.8678L247.494 21.8477C248.403 21.5804 249.409 21.19 250.508 20.6747Z" fill="white"/>
<g filter="url(#filter0_d_1034_3004)">
<path fill-rule="evenodd" clip-rule="evenodd" d="M19.0321 16.2534C23.9159 11.6404 29.2944 9.10962 33.6745 9.10962C36.1713 9.10962 38.4252 10.0048 39.8067 11.9358C43.5572 17.1486 40.2996 27.5706 32.552 35.1699C31.0464 36.6595 29.5409 37.8484 27.9147 38.8948C26.0421 39.9377 22.4086 42.7621 17.0318 42.3172C14.7779 42.1712 13.0259 41.1266 11.7757 39.4857C8.02155 34.2782 11.2721 23.8474 19.0321 16.2534Z" fill="white"/>
</g>
<path fill-rule="evenodd" clip-rule="evenodd" d="M19.0321 16.2534C11.2721 23.8474 8.02155 34.2782 11.7757 39.4857C13.0259 41.1266 14.7779 42.1712 17.0318 42.3172C18.5285 42.4667 19.7823 40.6816 20.7842 38.4446C21.7879 36.2093 22.4086 33.974 22.9122 32.0412C23.6587 28.9177 23.6587 26.5294 23.2846 26.0845C22.655 25.3406 21.286 25.4883 19.6599 26.3835C18.9116 26.8302 17.9096 26.5294 19.1598 25.0416C20.2806 23.7015 25.1572 20.1296 26.7904 19.6829C28.7908 19.0814 30.9276 19.8306 30.1722 21.9164C29.6686 23.4025 23.0381 40.6816 27.9147 38.8948C29.5409 37.8484 31.0464 36.6595 32.552 35.1699C40.2996 27.5706 43.5572 17.1486 39.8067 11.9358C38.4252 10.0048 36.1713 9.10962 33.6745 9.10962C29.2944 9.10962 23.9159 11.6404 19.0321 16.2534ZM33.4262 12.0836C34.304 12.9823 33.8039 14.9151 32.1654 16.4011C30.6705 17.896 28.6684 18.4922 27.7871 17.5918C26.9181 16.7054 27.42 14.7638 28.922 13.2742C30.5446 11.6404 32.552 11.1919 33.4262 12.0836Z" fill="#DB620A"/>
<path fill-rule="evenodd" clip-rule="evenodd" d="M24.1639 12.2359C23.2861 12.9816 22.4101 13.569 21.5359 14.4712C14.7795 21.0188 12.0308 30.1077 15.4001 34.726C16.661 36.5058 18.7854 37.2533 21.2876 37.2533C22.0359 35.3152 22.536 33.6796 22.9137 32.0405C23.6603 28.9171 23.6603 26.5288 23.2861 26.0838C22.6566 25.3399 21.2876 25.4876 19.6615 26.3828C18.9131 26.8295 17.9112 26.5288 19.1614 25.0409C20.2821 23.7008 25.1588 20.1289 26.792 19.6822C28.7905 19.079 30.9274 19.8299 30.1737 21.9158C29.796 22.9569 26.5384 31.4443 26.1642 36.0609C28.7905 35.0215 31.4222 33.2276 33.9208 30.8464C37.6767 27.2762 40.1788 23.1064 41.1825 19.2337C41.5585 16.4005 41.0655 13.8733 39.8082 11.9352C36.8007 7.91658 30.5461 8.21732 24.1639 12.2359ZM33.4278 12.0812C34.3056 12.9816 33.8037 14.9126 32.167 16.4005C30.672 17.8954 28.67 18.4916 27.7886 17.5911C26.9197 16.7048 27.4215 14.7632 28.9235 13.2735C30.5461 11.6397 32.5535 11.1913 33.4278 12.0812Z" fill="#97291E"/>
</g>
<defs>
<filter id="filter0_d_1034_3004" x="5.50423" y="4.399" width="40.5697" height="42.6759" filterUnits="userSpaceOnUse" color-interpolation-filters="sRGB">
<feFlood flood-opacity="0" result="BackgroundImageFix"/>
<feColorMatrix in="SourceAlpha" type="matrix" values="0 0 0 0 0 0 0 0 0 0 0 0 0 0 0 0 0 0 127 0" result="hardAlpha"/>
<feOffset/>
<feGaussianBlur stdDeviation="2.35531"/>
<feComposite in2="hardAlpha" operator="out"/>
<feColorMatrix type="matrix" values="0 0 0 0 1 0 0 0 0 1 0 0 0 0 1 0 0 0 1 0"/>
<feBlend mode="normal" in2="BackgroundImageFix" result="effect1_dropShadow_1034_3004"/>
<feBlend mode="normal" in="SourceGraphic" in2="effect1_dropShadow_1034_3004" result="shape"/>
</filter>
<clipPath id="clip0_1034_3004">
<rect width="260" height="52" fill="white"/>
</clipPath>
</defs>
</svg>
