<svg width="41" height="42" viewBox="0 0 41 42" fill="none" xmlns="http://www.w3.org/2000/svg">
<path d="M27.2881 35.4961V36.0622C27.2897 36.6178 27.5111 37.1502 27.904 37.543C28.2969 37.9359 28.8292 38.1573 29.3848 38.159H35.6751C36.2307 38.1573 36.763 37.9359 37.1559 37.543C37.5487 37.1502 37.7702 36.6178 37.7718 36.0622V35.4961C37.1349 35.8661 36.4116 36.0614 35.6751 36.0622H29.3848C28.6483 36.0614 27.925 35.8661 27.2881 35.4961Z" fill="#2B2E8C"/>
<path d="M35.6751 23.4824H29.3848C28.2268 23.4824 27.2881 24.4212 27.2881 25.5792V27.6759C27.2881 28.8339 28.2268 29.7727 29.3848 29.7727H35.6751C36.8331 29.7727 37.7718 28.8339 37.7718 27.6759V25.5792C37.7718 24.4212 36.8331 23.4824 35.6751 23.4824Z" fill="#2B2E8C"/>
<path d="M27.2881 31.3027V31.8689C27.2897 32.4244 27.5111 32.9568 27.904 33.3497C28.2969 33.7425 28.8292 33.964 29.3848 33.9656H35.6751C36.2307 33.964 36.763 33.7425 37.1559 33.3497C37.5487 32.9568 37.7702 32.4244 37.7718 31.8689V31.3027C37.1349 31.6728 36.4116 31.8681 35.6751 31.8689H29.3848C28.6483 31.8681 27.925 31.6728 27.2881 31.3027Z" fill="#2B2E8C"/>
<path d="M14.7074 35.4961V36.0622C14.7057 36.6178 14.4843 37.1502 14.0914 37.543C13.6986 37.9359 13.1662 38.1573 12.6106 38.159H6.32038C5.76479 38.1573 5.23242 37.9359 4.83956 37.543C4.4467 37.1502 4.22526 36.6178 4.22363 36.0622V35.4961C4.8605 35.8661 5.58381 36.0614 6.32038 36.0622H12.6106C13.3472 36.0614 14.0705 35.8661 14.7074 35.4961Z" fill="#2B2E8C"/>
<path d="M26.2396 35.4961V36.0622C26.238 36.6178 26.0165 37.1502 25.6237 37.543C25.2308 37.9359 24.6984 38.1573 24.1428 38.159H17.8526C17.297 38.1573 16.7646 37.9359 16.3718 37.543C15.9789 37.1502 15.7575 36.6178 15.7559 36.0622V35.4961C16.3927 35.8661 17.116 36.0614 17.8526 36.0622H24.1428C24.8794 36.0614 25.6027 35.8661 26.2396 35.4961Z" fill="#2B2E8C"/>
<path d="M26.2396 31.3027V31.8689C26.238 32.4244 26.0165 32.9568 25.6237 33.3497C25.2308 33.7425 24.6984 33.964 24.1428 33.9656H17.8526C17.297 33.964 16.7646 33.7425 16.3718 33.3497C15.9789 32.9568 15.7575 32.4244 15.7559 31.8689V31.3027C16.3927 31.6728 17.116 31.8681 17.8526 31.8689H24.1428C24.8794 31.8681 25.6027 31.6728 26.2396 31.3027Z" fill="#2B2E8C"/>
<path d="M26.2396 27.1094V27.6755C26.238 28.2311 26.0165 28.7635 25.6237 29.1563C25.2308 29.5492 24.6984 29.7706 24.1428 29.7722H17.8526C17.297 29.7706 16.7646 29.5492 16.3718 29.1563C15.9789 28.7635 15.7575 28.2311 15.7559 27.6755V27.1094C16.3927 27.4794 17.116 27.6747 17.8526 27.6755H24.1428C24.8794 27.6747 25.6027 27.4794 26.2396 27.1094Z" fill="#2B2E8C"/>
<path d="M24.1428 19.2891H17.8526C16.6946 19.2891 15.7559 20.2278 15.7559 21.3858V23.4826C15.7559 24.6406 16.6946 25.5793 17.8526 25.5793H24.1428C25.3008 25.5793 26.2396 24.6406 26.2396 23.4826V21.3858C26.2396 20.2278 25.3008 19.2891 24.1428 19.2891Z" fill="#2B2E8C"/>
<path d="M12.6106 23.4824H6.32038C5.16238 23.4824 4.22363 24.4212 4.22363 25.5792V27.6759C4.22363 28.8339 5.16238 29.7727 6.32038 29.7727H12.6106C13.7686 29.7727 14.7074 28.8339 14.7074 27.6759V25.5792C14.7074 24.4212 13.7686 23.4824 12.6106 23.4824Z" fill="#2B2E8C"/>
<path d="M14.7074 31.3027V31.8689C14.7057 32.4244 14.4843 32.9568 14.0914 33.3497C13.6986 33.7425 13.1662 33.964 12.6106 33.9656H6.32038C5.76479 33.964 5.23242 33.7425 4.83956 33.3497C4.4467 32.9568 4.22526 32.4244 4.22363 31.8689V31.3027C4.8605 31.6728 5.58381 31.8681 6.32038 31.8689H12.6106C13.3472 31.8681 14.0705 31.6728 14.7074 31.3027Z" fill="#2B2E8C"/>
<path d="M17.8521 17.1931V11.9512H14.707L20.9973 5.53516L27.2875 11.9512H24.1424V17.1931H17.8521Z" fill="#FFBE45"/>
<path d="M30.4208 20.5658V17.5308H28.3125L32.5301 13.8164L36.7477 17.5308H34.6394V20.5658H30.4208Z" fill="#FFBE45"/>
<path d="M11.575 20.5658V17.5308H13.6833L9.46565 13.8164L5.24805 17.5308H7.35632V20.5658H11.575Z" fill="#FFBE45"/>
</svg>
