<svg xmlns="http://www.w3.org/2000/svg" xmlns:xlink="http://www.w3.org/1999/xlink" width="40" height="26" viewBox="0 0 40 26">
    <defs>
        <path id="a" d="M0 21.246V.137h35.467v21.109z"/>
    </defs>
    <g fill="none" fill-rule="evenodd">
        <g transform="translate(2.667 1.813)">
            <mask id="b" fill="#fff">
                <use xlink:href="#a"/>
            </mask>
            <path fill="#223368" d="M.188 19.872L17.228.352a.583.583 0 0 1 .904 0L35.28 19.995c.403.462.116 1.253-.455 1.25L.64 21.123c-.569-.001-.853-.79-.45-1.25" mask="url(#b)"/>
        </g>
        <path fill="#FEFEFE" d="M17.843 11.016c-.184 0-.32-.05-.407-.152a.514.514 0 0 1 0-.685c.088-.097.223-.146.407-.146h5.114c.185 0 .32.052.408.154a.516.516 0 0 1 0 .684c-.087.097-.223.145-.408.145h-.746c-.322 0-.594-.005-.816-.013-.22-.01-.354-.02-.4-.028v.055a1.838 1.838 0 0 1 .982 1.148h.98c.185 0 .32.05.408.152a.518.518 0 0 1 0 .684c-.087.096-.223.145-.408.145h-.912c-.046.424-.16.787-.345 1.086-.184.3-.409.546-.67.74a2.993 2.993 0 0 1-.871.443 4.381 4.381 0 0 1-.933.193l3.123 3.001a.69.69 0 0 1 .221.499.63.63 0 0 1-.165.442.594.594 0 0 1-.457.18.946.946 0 0 1-.297-.049.777.777 0 0 1-.296-.2l-3.677-3.596a.94.94 0 0 1-.222-.283.685.685 0 0 1-.068-.298c0-.175.055-.32.165-.436a.57.57 0 0 1 .429-.172h.18c.285 0 .569-.026.85-.077.28-.05.534-.138.76-.262.225-.125.416-.283.574-.477a1.52 1.52 0 0 0 .304-.734h-2.807c-.184 0-.32-.05-.407-.152a.511.511 0 0 1 0-.684c.088-.097.223-.145.407-.145h2.737c-.24-.775-.944-1.162-2.115-1.162h-.622z"/>
    </g>
</svg>
