<svg xmlns="http://www.w3.org/2000/svg" width="270" height="38.989" viewBox="0 0 270 38.989">
  <g id="logo_file-01" data-name="logo file-01" transform="translate(-32.7 -15)">
    <path id="Path_1" data-name="Path 1" d="M69.252,48.3c-.127,1.017-2.161,15.258-2.352,16.593h4.577c.127-1.017,2.161-15.258,2.352-16.593H69.252Z" transform="translate(-12.458 -11.322)" fill="#1d427c"/>
    <path id="Path_2" data-name="Path 2" d="M127.952,48.3c-.127,1.017-2.161,15.258-2.352,16.593h10.68c.127-.7.381-2.67.509-3.56H130.3l.445-3.052h5.912c.127-.7.318-2.416.509-3.369h-5.849l.445-2.988h6.294c.127-.7.381-2.67.509-3.56h-10.49Z" transform="translate(-32.525 -11.322)" fill="#1d427c"/>
    <path id="Path_3" data-name="Path 3" d="M43.317,57.872s3.814-8.709,4.132-9.472H53.17c0,1.144-.763,15.385-.763,16.593H48.275l.7-11.57s-4.641,10.871-4.959,11.57H40.774l-1.462-11.57c-.127.509-1.653,8.264-2.479,11.57H32.7c.445-1.462,3.56-15.7,3.814-16.593h5.531l1.271,9.472Z" transform="translate(0 -11.358)" fill="#1d427c"/>
    <path id="Path_4" data-name="Path 4" d="M106.557,58.09l2.606-6.167.826,6.167Zm3.878,3.433s.318,2.67.381,3.369H115.2c-.254-1.4-2.606-15.575-2.8-16.593h-5.531c-.318.7-6.612,14.94-7.374,16.593h4.45c.254-.572,1.335-3.369,1.335-3.369Z" transform="translate(-23.377 -11.322)" fill="#1d427c"/>
    <path id="Path_5" data-name="Path 5" d="M84.376,51.379h1.017a2.483,2.483,0,0,1,1.971.636,2.228,2.228,0,0,1,.381,1.653s-.127,1.271-.954,1.653a2.935,2.935,0,0,1-1.526.381H83.232l3.878,9.091h4.45L88.19,57.8c2.034-.381,3.624-.954,4.005-4.132,0-.381.064-.763.064-1.144a4.334,4.334,0,0,0-.89-2.8c-1.081-1.271-2.988-1.526-4.387-1.526h-6.23c-.127,1.017-2.161,15.258-2.352,16.593h4.132c.127-.954,1.907-13.477,1.907-13.477" transform="translate(-16.647 -11.285)" fill="#1d427c"/>
    <path id="Path_6" data-name="Path 6" d="M278.555,15c-2.67,11-12.206,17.038-17.8,20.216L260.5,34.9c2.289-1.844,10.235-7.692,12.715-17.355Z" transform="translate(-79.689 0)" fill="#ee8422"/>
    <path id="Path_7" data-name="Path 7" d="M206.947,54.426l-1.208-.636h0c-.381-.191-1.271-.763-1.271-1.653a1.358,1.358,0,0,1,.509-1.081,1.883,1.883,0,0,1,1.589-.318,6.265,6.265,0,0,1,2.67,1.462c.445-.89,1.335-2.606,1.716-3.242a7.243,7.243,0,0,0-3.878-1.716,7.1,7.1,0,0,0-5.34,1.144,5.4,5.4,0,0,0-2.034,3.751V52.9a4.137,4.137,0,0,0,.572,2.225c2.479,0,5.086-.191,7.692-.381a4.272,4.272,0,0,0-.763-.381" transform="translate(-58.485 -11.161)" fill="#1d427c"/>
    <path id="Path_8" data-name="Path 8" d="M239.772,48.3c-.127.7-.445,2.861-.572,3.942A64.965,64.965,0,0,0,249.88,48.3Z" transform="translate(-72.324 -11.63)" fill="#1d427c"/>
    <path id="Path_9" data-name="Path 9" d="M209.251,52.287h0c-.445.127-.954.318-1.4.445a.573.573,0,0,0-.318.064,2.02,2.02,0,0,0-.572.191c-.127,0-.191.064-.318.127-.636.191-1.335.381-2.034.572a.9.9,0,0,0-.381.127c-.191,0-.381.127-.572.127a1.179,1.179,0,0,0-.445.127c-.191,0-.381.127-.572.127a1.856,1.856,0,0,0-.572.127,5.3,5.3,0,0,0-.954.254,1.856,1.856,0,0,0-.572.127h-.254c-1.844.445-3.878.826-5.976,1.208h-.127a7.165,7.165,0,0,0-1.144.191h-.318c-.381.064-.826.127-1.208.191h-.127c-2.289.318-4.641.636-7.12.826h0c-.381,0-.763.064-1.144.064H183a6.91,6.91,0,0,0-1.144.064h-.127a7.694,7.694,0,0,0-1.208.064h-1.271c-2.1.127-4.259.127-6.548.127h-2.034c-1.78,0-3.687-.064-5.531-.191h0c-2.861-.127-5.849-.381-8.9-.763l3.56-3.306a43.934,43.934,0,0,0,4.9,1.144c-.509-3.179-1.017-6.039-1.081-6.421h-5.531c-.318.7-6.612,14.94-7.374,16.593h4.45c.254-.572,1.716-4.132,1.716-4.132h4.641s.445,3.433.572,4.132h4.387c-.064-.509-.509-3.052-1.017-5.912,3.115.191,6.23.191,9.154.191a1.8,1.8,0,0,1,.254.826v.318a1.077,1.077,0,0,1-.572.89,2.869,2.869,0,0,1-2.034.254,7.037,7.037,0,0,1-3.433-2.225c-.572.954-1.78,2.861-2.161,3.5a10.458,10.458,0,0,0,5.4,2.734,6.95,6.95,0,0,0,5.277-1.208,5.514,5.514,0,0,0,2.225-3.878,4.713,4.713,0,0,0,.064-1.335c3.115-.127,5.722-.318,7.374-.445a1.673,1.673,0,0,1,.826,1.4v.318a1.077,1.077,0,0,1-.572.89,2.87,2.87,0,0,1-2.034.254,7.037,7.037,0,0,1-3.433-2.225c-.572.954-1.78,2.861-2.161,3.5a10.458,10.458,0,0,0,5.4,2.734,6.886,6.886,0,0,0,5.277-1.208,5.583,5.583,0,0,0,2.289-3.878,5.05,5.05,0,0,0-.127-2.416c.7-.127,1.4-.191,2.034-.318-.509,3.5-.954,6.739-1.081,7.311H204.1c.127-.7.381-2.67.509-3.56h-6.484l.445-3.051h5.849c.064-.636.318-2.1.445-3.052.826-.254,1.208-.381,1.208-.381s1.971-.572,4.577-1.526c-.381,2.606-1.526,10.553-1.653,11.634h4.641c.127-.954,1.78-12.46,1.78-12.46h3.369c.127-.7.445-2.988.572-4.005a57.991,57.991,0,0,1-9.727,4.005" transform="translate(-40.838 -11.176)" fill="#1d427c"/>
    <path id="Path_10" data-name="Path 10" d="M187.909,55.252a7.38,7.38,0,0,0-1.4-.826L185.3,53.79h0c-.381-.191-1.271-.763-1.271-1.653s.191-.826.445-1.081a1.883,1.883,0,0,1,1.589-.318,5.93,5.93,0,0,1,2.67,1.462c.445-.89,1.4-2.606,1.716-3.242a7.243,7.243,0,0,0-3.878-1.716,7.1,7.1,0,0,0-5.34,1.144,5.172,5.172,0,0,0-2.034,3.751V52.9a4.952,4.952,0,0,0,.381,1.971h.318c2.1.191,4.9.318,8.2.318" transform="translate(-51.305 -11.158)" fill="#1d427c"/>
    <path id="Path_11" data-name="Path 11" d="M224.141,51.96h6.294c.127-.7.381-2.67.509-3.56h-10.49c0,.445-.445,3.242-.954,6.421,1.462-.191,2.924-.381,4.323-.636Z" transform="translate(-65.417 -11.626)" fill="#1d427c"/>
    <path id="Path_12" data-name="Path 12" d="M374.277,56.78l.826-.826,4.323-4.577H376.5l-5.34,5.785V46.1H369V64.091h2.161V60.15l1.526-1.653,4.132,5.594h2.924Z" transform="translate(-116.904 -10.52)" fill="#1d427c"/>
    <path id="Path_13" data-name="Path 13" d="M281,57.762a4.367,4.367,0,0,0-1.526-1.526,14.244,14.244,0,0,0-2.416-1.208,12.383,12.383,0,0,1-2.034-.954,4.53,4.53,0,0,1-1.144-.954,2.266,2.266,0,0,1-.064-2.416,1.964,1.964,0,0,1,.954-.763,3.973,3.973,0,0,1,1.589-.254,7.438,7.438,0,0,1,2.034.254h.191a3.585,3.585,0,0,1,.763.254h.127c.254.064.509.191.763.254a6.948,6.948,0,0,1,.954.509V48.417h0a13.115,13.115,0,0,0-2.225-.763,10.782,10.782,0,0,0-2.543-.254,8.745,8.745,0,0,0-2.861.509,4.1,4.1,0,0,0-2.606,3.942,4.578,4.578,0,0,0,.318,1.844,4.732,4.732,0,0,0,.89,1.4,5.3,5.3,0,0,0,1.335,1.017,7.034,7.034,0,0,0,1.716.763,19.163,19.163,0,0,1,2.161.954,3.3,3.3,0,0,1,1.208,1.017,2.212,2.212,0,0,1,.381,1.335,2.018,2.018,0,0,1-.381,1.271,2.24,2.24,0,0,1-1.144.826,5.424,5.424,0,0,1-1.907.318,12.68,12.68,0,0,1-2.606-.318c-.826-.254-1.589-.509-2.225-.763v2.416a7.478,7.478,0,0,0,1.271.445,11.713,11.713,0,0,0,1.589.318,15.628,15.628,0,0,0,1.78.127,8.219,8.219,0,0,0,3.242-.572,4.982,4.982,0,0,0,2.1-1.653,4.358,4.358,0,0,0,.763-2.606,4.43,4.43,0,0,0-.509-2.225" transform="translate(-83.356 -10.994)" fill="#1d427c"/>
    <path id="Path_14" data-name="Path 14" d="M318.922,54a11.162,11.162,0,0,0-2.479.381,7.6,7.6,0,0,0-2.1.826v1.971A13.705,13.705,0,0,1,316.7,56.1a7.682,7.682,0,0,1,2.161-.381,3.155,3.155,0,0,1,2.034.7,3.033,3.033,0,0,1,.636,2.161v.763h-2.161c-4.069.191-6.167,1.589-6.167,4.2s.381,2.161,1.081,2.8a4.346,4.346,0,0,0,2.988,1.017,4.645,4.645,0,0,0,2.416-.445,3.9,3.9,0,0,0,1.844-1.335V67.1h2.1V58.387a4.1,4.1,0,0,0-1.144-3.242,4.927,4.927,0,0,0-3.433-1.017m2.416,7.756a3.407,3.407,0,0,1-1.017,2.67,3.928,3.928,0,0,1-2.8.954c-1.208,0-1.335-.191-1.716-.509a2.106,2.106,0,0,1-.636-1.526,2.44,2.44,0,0,1,1.017-1.971,7.445,7.445,0,0,1,3.242-.7h1.907Z" transform="translate(-98.246 -13.398)" fill="#1d427c"/>
    <path id="Path_15" data-name="Path 15" d="M416.122,54a11.161,11.161,0,0,0-2.479.381,7.6,7.6,0,0,0-2.1.826v1.971A13.705,13.705,0,0,1,413.9,56.1a7.683,7.683,0,0,1,2.161-.381,3.155,3.155,0,0,1,2.034.7,3.033,3.033,0,0,1,.636,2.161v.763h-2.161c-4.069.191-6.167,1.589-6.167,4.2s.381,2.161,1.081,2.8a4.346,4.346,0,0,0,2.988,1.017,4.646,4.646,0,0,0,2.416-.445,3.9,3.9,0,0,0,1.844-1.335V67.1h2.1V58.387a4.1,4.1,0,0,0-1.144-3.242,4.927,4.927,0,0,0-3.433-1.017m2.416,7.756a3.407,3.407,0,0,1-1.017,2.67,3.928,3.928,0,0,1-2.8.954c-1.208,0-1.335-.191-1.716-.509a2.106,2.106,0,0,1-.636-1.526,2.44,2.44,0,0,1,1.017-1.971,7.446,7.446,0,0,1,3.242-.7h1.907Z" transform="translate(-131.985 -13.398)" fill="#1d427c"/>
    <path id="Path_16" data-name="Path 16" d="M441.2,55.044a4.725,4.725,0,0,0-3.5-1.144,4.561,4.561,0,0,0-4.005,1.971h0v-1.78h-2.1V66.869h2.1V60.257a5.846,5.846,0,0,1,.89-3.56,3.508,3.508,0,0,1,2.861-1.081c1.335,0,1.716.254,2.161.763a3.462,3.462,0,0,1,.7,2.352v8.2h2.1V58.6a4.89,4.89,0,0,0-1.144-3.56" transform="translate(-139.707 -13.361)" fill="#1d427c"/>
    <path id="Path_17" data-name="Path 17" d="M353.067,67.187a5.94,5.94,0,0,1-4.514-1.716,6.845,6.845,0,0,1-1.653-4.832,7.4,7.4,0,0,1,1.526-4.9,5.175,5.175,0,0,1,4.132-1.844,5.028,5.028,0,0,1,3.878,1.526,5.906,5.906,0,0,1,1.462,4.2v1.271h-8.773a4.7,4.7,0,0,0,1.081,3.306,3.88,3.88,0,0,0,2.988,1.144,4.976,4.976,0,0,0,1.971-.191,13.949,13.949,0,0,0,2.161-.7V66.3a10.017,10.017,0,0,1-1.971.636,11.156,11.156,0,0,1-2.225.191m-.636-11.507a2.974,2.974,0,0,0-2.352.954,4.246,4.246,0,0,0-1.017,2.67h6.484a4.246,4.246,0,0,0-.826-2.734,2.755,2.755,0,0,0-2.289-.954" transform="translate(-110.039 -13.361)" fill="#1d427c"/>
    <path id="Path_18" data-name="Path 18" d="M398.6,52.2a4.725,4.725,0,0,0-3.5-1.144,4.561,4.561,0,0,0-4.005,1.971h0V46.1H389V64.091h2.1V57.48a5.846,5.846,0,0,1,.89-3.56,3.508,3.508,0,0,1,2.861-1.081c1.335,0,1.716.254,2.161.763a3.462,3.462,0,0,1,.7,2.352v8.2h2.1V55.827a4.89,4.89,0,0,0-1.144-3.56" transform="translate(-124.189 -10.52)" fill="#1d427c"/>
    <path id="Path_19" data-name="Path 19" d="M341.447,54.064c-.381,0-.763-.064-1.144-.064a5.559,5.559,0,0,0-2.352.509,3.7,3.7,0,0,0-1.653,1.462h0V54.254h-2.1V67.032h2.1V60.421a5.846,5.846,0,0,1,.89-3.56,3.508,3.508,0,0,1,2.861-1.081c1.335,0,1.081.064,1.462.254" transform="translate(-105.652 -13.398)" fill="#1d427c"/>
    <path id="Path_20" data-name="Path 20" d="M301.4,52.2a4.725,4.725,0,0,0-3.5-1.144,4.561,4.561,0,0,0-4.005,1.971h0V46.1h-2.1V64.091h2.1V57.48a5.846,5.846,0,0,1,.89-3.56,3.508,3.508,0,0,1,2.861-1.081c1.335,0,1.716.254,2.161.763a3.462,3.462,0,0,1,.7,2.352v8.2h2.1V55.827a4.89,4.89,0,0,0-1.144-3.56" transform="translate(-90.745 -10.52)" fill="#1d427c"/>
    <path id="Path_21" data-name="Path 21" d="M374.277,56.78l.826-.826,4.323-4.577H376.5l-5.34,5.785V46.1H369V64.091h2.161V60.15l1.526-1.653,4.132,5.594h2.924Z" transform="translate(-116.904 -10.52)" fill="#1d427c"/>
    <path id="Path_22" data-name="Path 22" d="M281,57.762a4.367,4.367,0,0,0-1.526-1.526,14.244,14.244,0,0,0-2.416-1.208,12.383,12.383,0,0,1-2.034-.954,4.53,4.53,0,0,1-1.144-.954,2.266,2.266,0,0,1-.064-2.416,1.964,1.964,0,0,1,.954-.763,3.973,3.973,0,0,1,1.589-.254,7.438,7.438,0,0,1,2.034.254h.191a3.585,3.585,0,0,1,.763.254h.127c.254.064.509.191.763.254a6.948,6.948,0,0,1,.954.509V48.417h0a13.115,13.115,0,0,0-2.225-.763,10.782,10.782,0,0,0-2.543-.254,8.745,8.745,0,0,0-2.861.509,4.1,4.1,0,0,0-2.606,3.942,4.578,4.578,0,0,0,.318,1.844,4.732,4.732,0,0,0,.89,1.4,5.3,5.3,0,0,0,1.335,1.017,7.034,7.034,0,0,0,1.716.763,19.163,19.163,0,0,1,2.161.954,3.3,3.3,0,0,1,1.208,1.017,2.212,2.212,0,0,1,.381,1.335,2.018,2.018,0,0,1-.381,1.271,2.24,2.24,0,0,1-1.144.826,5.424,5.424,0,0,1-1.907.318,12.68,12.68,0,0,1-2.606-.318c-.826-.254-1.589-.509-2.225-.763v2.416a7.478,7.478,0,0,0,1.271.445,11.713,11.713,0,0,0,1.589.318,15.628,15.628,0,0,0,1.78.127,8.219,8.219,0,0,0,3.242-.572,4.982,4.982,0,0,0,2.1-1.653,4.358,4.358,0,0,0,.763-2.606,4.43,4.43,0,0,0-.509-2.225" transform="translate(-83.356 -10.994)" fill="#1d427c"/>
    <path id="Path_23" data-name="Path 23" d="M318.922,54a11.162,11.162,0,0,0-2.479.381,7.6,7.6,0,0,0-2.1.826v1.971A13.705,13.705,0,0,1,316.7,56.1a7.682,7.682,0,0,1,2.161-.381,3.155,3.155,0,0,1,2.034.7,3.033,3.033,0,0,1,.636,2.161v.763h-2.161c-4.069.191-6.167,1.589-6.167,4.2s.381,2.161,1.081,2.8a4.346,4.346,0,0,0,2.988,1.017,4.645,4.645,0,0,0,2.416-.445,3.9,3.9,0,0,0,1.844-1.335V67.1h2.1V58.387a4.1,4.1,0,0,0-1.144-3.242,4.927,4.927,0,0,0-3.433-1.017m2.416,7.756a3.407,3.407,0,0,1-1.017,2.67,3.928,3.928,0,0,1-2.8.954c-1.208,0-1.335-.191-1.716-.509a2.106,2.106,0,0,1-.636-1.526,2.44,2.44,0,0,1,1.017-1.971,7.445,7.445,0,0,1,3.242-.7h1.907Z" transform="translate(-98.246 -13.398)" fill="#1d427c"/>
    <path id="Path_24" data-name="Path 24" d="M416.122,54a11.161,11.161,0,0,0-2.479.381,7.6,7.6,0,0,0-2.1.826v1.971A13.705,13.705,0,0,1,413.9,56.1a7.683,7.683,0,0,1,2.161-.381,3.155,3.155,0,0,1,2.034.7,3.033,3.033,0,0,1,.636,2.161v.763h-2.161c-4.069.191-6.167,1.589-6.167,4.2s.381,2.161,1.081,2.8a4.346,4.346,0,0,0,2.988,1.017,4.646,4.646,0,0,0,2.416-.445,3.9,3.9,0,0,0,1.844-1.335V67.1h2.1V58.387a4.1,4.1,0,0,0-1.144-3.242,4.927,4.927,0,0,0-3.433-1.017m2.416,7.756a3.407,3.407,0,0,1-1.017,2.67,3.928,3.928,0,0,1-2.8.954c-1.208,0-1.335-.191-1.716-.509a2.106,2.106,0,0,1-.636-1.526,2.44,2.44,0,0,1,1.017-1.971,7.446,7.446,0,0,1,3.242-.7h1.907Z" transform="translate(-131.985 -13.398)" fill="#1d427c"/>
    <path id="Path_25" data-name="Path 25" d="M441.2,55.044a4.725,4.725,0,0,0-3.5-1.144,4.561,4.561,0,0,0-4.005,1.971h0v-1.78h-2.1V66.869h2.1V60.257a5.846,5.846,0,0,1,.89-3.56,3.508,3.508,0,0,1,2.861-1.081c1.335,0,1.716.254,2.161.763a3.462,3.462,0,0,1,.7,2.352v8.2h2.1V58.6a4.89,4.89,0,0,0-1.144-3.56" transform="translate(-139.707 -13.361)" fill="#1d427c"/>
    <path id="Path_26" data-name="Path 26" d="M353.067,67.187a5.94,5.94,0,0,1-4.514-1.716,6.845,6.845,0,0,1-1.653-4.832,7.4,7.4,0,0,1,1.526-4.9,5.175,5.175,0,0,1,4.132-1.844,5.028,5.028,0,0,1,3.878,1.526,5.906,5.906,0,0,1,1.462,4.2v1.271h-8.773a4.7,4.7,0,0,0,1.081,3.306,3.88,3.88,0,0,0,2.988,1.144,4.976,4.976,0,0,0,1.971-.191,13.949,13.949,0,0,0,2.161-.7V66.3a10.017,10.017,0,0,1-1.971.636,11.156,11.156,0,0,1-2.225.191m-.636-11.507a2.974,2.974,0,0,0-2.352.954,4.246,4.246,0,0,0-1.017,2.67h6.484a4.246,4.246,0,0,0-.826-2.734,2.755,2.755,0,0,0-2.289-.954" transform="translate(-110.039 -13.361)" fill="#1d427c"/>
    <path id="Path_27" data-name="Path 27" d="M398.6,52.2a4.725,4.725,0,0,0-3.5-1.144,4.561,4.561,0,0,0-4.005,1.971h0V46.1H389V64.091h2.1V57.48a5.846,5.846,0,0,1,.89-3.56,3.508,3.508,0,0,1,2.861-1.081c1.335,0,1.716.254,2.161.763a3.462,3.462,0,0,1,.7,2.352v8.2h2.1V55.827a4.89,4.89,0,0,0-1.144-3.56" transform="translate(-124.189 -10.52)" fill="#1d427c"/>
    <path id="Path_28" data-name="Path 28" d="M341.447,54.064c-.381,0-.763-.064-1.144-.064a5.559,5.559,0,0,0-2.352.509,3.7,3.7,0,0,0-1.653,1.462h0V54.254h-2.1V67.032h2.1V60.421a5.846,5.846,0,0,1,.89-3.56,3.508,3.508,0,0,1,2.861-1.081c1.335,0,1.081.064,1.462.254" transform="translate(-105.652 -13.398)" fill="#1d427c"/>
    <path id="Path_29" data-name="Path 29" d="M301.4,52.2a4.725,4.725,0,0,0-3.5-1.144,4.561,4.561,0,0,0-4.005,1.971h0V46.1h-2.1V64.091h2.1V57.48a5.846,5.846,0,0,1,.89-3.56,3.508,3.508,0,0,1,2.861-1.081c1.335,0,1.716.254,2.161.763a3.462,3.462,0,0,1,.7,2.352v8.2h2.1V55.827a4.89,4.89,0,0,0-1.144-3.56" transform="translate(-90.745 -10.52)" fill="#1d427c"/>
  </g>
</svg>
